<svg width="142" height="68" viewBox="0 0 142 68" fill="none" xmlns="http://www.w3.org/2000/svg">
<path d="M46.7588 54.5777C46.9053 55.0836 46.978 55.7847 46.978 56.6775C46.1571 56.7512 44.7078 56.9518 42.6293 57.2615C40.4789 57.5828 38.7562 57.8517 37.4614 58.0851C37.4614 57.7754 37.4898 57.4062 37.5439 56.9793C37.598 56.5533 37.6619 56.1974 37.7356 55.9143C38.245 55.8069 38.6196 55.6542 38.8565 55.4563C39.0926 55.2584 39.2568 54.9522 39.3491 54.5387C39.4387 54.1242 39.4858 53.4799 39.4849 52.6039V44.288C39.4849 43.4316 39.444 42.8174 39.3624 42.4456C39.2808 42.0746 39.1201 41.8279 38.8831 41.7072C38.6471 41.5865 38.2548 41.527 37.7081 41.5297C37.5439 40.896 37.4614 40.1958 37.4614 39.4299C38.3737 39.3589 40.005 39.16 42.3568 38.8104C44.3431 38.5148 45.8837 38.2477 46.978 38.0223C46.978 38.4962 46.9647 38.8947 46.9363 39.2186C46.9097 39.5426 46.8414 39.8665 46.7322 40.194C46.2024 40.3333 45.8199 40.4957 45.5829 40.6874C45.3459 40.8791 45.1817 41.1782 45.0912 41.5838C44.9998 41.9903 44.9536 42.6222 44.9545 43.4786V51.254C44.1478 51.3783 43.3419 51.4998 42.5361 51.6197C43.3437 51.8105 44.1514 52.0004 44.959 52.1877C44.9714 52.8444 45.0211 53.3414 45.1045 53.6725C45.2048 54.0665 45.3788 54.3274 45.6246 54.4534C45.8704 54.5804 46.2485 54.6221 46.7588 54.5777ZM35.0083 44.6634C35.1858 45.3637 35.2746 46.1429 35.2746 47.0082C35.2746 48.8054 34.9107 50.4757 34.1803 52.0164C33.4516 53.5571 32.3769 54.8351 30.9587 55.8397C29.5387 56.8444 27.8391 57.4594 25.86 57.668C24.74 57.7869 23.8418 57.7452 23.1646 57.5508C23.1123 57.139 23.0865 56.8541 23.0865 56.6988C23.0865 56.1255 23.1771 55.6356 23.3599 55.2256C23.777 55.2886 24.2456 55.2966 24.7666 55.2416C26.0162 55.1138 27.0448 54.5457 27.8524 53.5438C28.66 52.5409 29.0639 51.0099 29.0639 48.9509C29.0639 46.9186 28.6272 45.3628 27.7548 44.2738C26.8824 43.1857 25.5476 42.7393 23.7504 42.9177C23.2294 42.9683 22.6437 43.1165 21.9931 43.3588V60.2799C21.9931 61.4265 22.1156 62.2998 22.3641 62.9025C22.6117 63.5033 23.0146 63.916 23.5755 64.1343C24.1347 64.3535 24.9219 64.4494 25.9381 64.4201C26.1209 64.9224 26.2114 65.7203 26.2114 66.8137C24.8571 66.8802 22.7351 67.0622 19.8445 67.3098C16.8235 67.5672 14.5967 67.7482 13.1643 67.9133C13.1643 66.7666 13.2433 65.9537 13.3986 65.4762C14.1281 65.3795 14.6757 65.2073 15.0396 64.9614C15.4034 64.7156 15.6644 64.3189 15.8206 63.774C15.8862 63.5477 15.9368 63.2716 15.975 62.9539C16.7143 62.8536 17.4545 62.7498 18.1938 62.6424C17.4758 62.4747 16.7578 62.3052 16.0398 62.1312C16.0495 61.8898 16.0549 61.6315 16.0558 61.3538V58.3833C15.4931 57.8614 14.9304 57.3361 14.3677 56.8098C14.9304 56.2107 15.4931 55.6099 16.0558 55.0072V47.4031C16.0558 46.3364 15.9839 45.5527 15.8401 45.0548C15.6963 44.556 15.4496 44.2099 15.0981 44.012C14.7467 43.8132 14.1929 43.7014 13.4385 43.6685C13.2557 43.1068 13.1634 42.3045 13.1643 41.2625C15.4292 41.2048 17.3959 41.0957 19.0635 40.959C20.4036 40.8348 21.7455 40.7016 23.0865 40.5596C23.7637 40.4682 24.5713 40.3759 25.5094 40.2765C30.5025 39.7493 33.5794 40.8818 34.7421 43.8318C34.0055 44.2951 33.2688 44.7566 32.5322 45.2164C33.3576 45.0344 34.1829 44.8507 35.0083 44.6634ZM128.104 2.54624C128.222 3.47811 128.38 4.34875 128.583 5.15637C127.871 5.49185 126.923 5.69775 125.738 5.78295C125.483 4.54311 125.132 3.6707 124.686 3.1666C124.238 2.6625 123.559 2.44684 122.648 2.52227L122.101 2.56842V6.603C121.3 6.7237 120.499 6.84884 119.696 6.97575C120.499 7.15147 121.3 7.32898 122.101 7.51091V13.892C122.101 14.768 122.17 15.4008 122.306 15.7904C122.443 16.1791 122.693 16.4427 123.058 16.5758C123.424 16.709 123.998 16.7631 124.782 16.7409C124.964 17.2006 125.055 17.9053 125.055 18.8532C124.034 18.8745 122.257 18.9845 119.723 19.2215C116.714 19.5037 114.609 19.7717 113.406 19.9617C113.406 19.651 113.438 19.2827 113.501 18.8567C113.565 18.4289 113.643 18.0748 113.734 17.7908C114.536 17.6639 115.138 17.4971 115.539 17.2903C115.939 17.0835 116.223 16.7666 116.387 16.3389C116.551 15.9102 116.633 15.2703 116.633 14.4121V3.08761L116.578 3.09294C115.611 3.19411 114.869 3.54911 114.35 4.15439C113.83 4.75878 113.415 5.69864 113.105 6.97486C111.811 7.12396 110.872 7.10178 110.289 6.90031C110.489 6.12819 110.653 5.23714 110.781 4.22805C110.908 3.21896 110.972 2.34034 110.972 1.59218C112.504 1.46438 115.356 1.14487 119.531 0.748163C122.849 0.434875 125.647 0.197912 127.926 0C127.926 0.765912 127.985 1.61525 128.104 2.54712V2.54624ZM59.6933 44.3244C59.0729 45.0593 58.3354 45.5021 57.4781 45.6486C57.2952 45.6796 57.0219 45.6903 56.6571 45.6787V38.6497C57.0219 38.4598 57.4044 38.3302 57.8055 38.2619C58.6629 38.1146 59.3462 38.3249 59.8565 38.8929C60.3669 39.4618 60.6225 40.3289 60.6225 41.4959C60.6225 42.6453 60.3118 43.5878 59.6933 44.3244ZM65.5721 49.5198C65.0981 48.6368 64.7201 47.9836 64.4369 47.5585C64.1538 47.1342 63.8716 46.8201 63.5894 46.6133C63.3072 46.4074 62.9468 46.2609 62.5093 46.1731C63.6755 45.6583 64.6056 44.8578 65.2987 43.768C65.9909 42.6808 66.3371 41.369 66.3371 39.8381C66.3371 38.8707 66.0912 38.0445 65.5996 37.3558C65.107 36.6671 64.3509 36.186 63.3293 35.9091C62.3087 35.6313 61.0414 35.6251 59.5291 35.8861C59.1643 35.95 57.8606 36.2029 55.6187 36.6369L53.8686 36.9857C52.1912 37.2652 50.623 37.4862 49.1648 37.6469C49.1648 37.922 49.1826 38.277 49.2199 38.719C49.2571 39.16 49.3015 39.4946 49.3565 39.7227C49.9032 39.7076 50.3008 39.7582 50.5458 39.8718C50.7916 39.9863 50.9602 40.2321 51.0517 40.6102C51.1431 40.9883 51.1883 41.5953 51.1883 42.434V45.7329C51.996 45.4542 52.8036 45.1737 53.6094 44.8924C52.8027 45.5199 51.996 46.1456 51.1883 46.7704V50.8049C51.1883 51.6614 51.1377 52.3048 51.0375 52.7308C50.9372 53.1568 50.765 53.4719 50.5183 53.6769C50.2724 53.881 49.8935 54.0425 49.384 54.1615C49.2376 54.7312 49.1657 55.4537 49.1648 56.3296C50.4224 56.0723 51.8362 55.8167 53.4035 55.554C55.554 55.1963 57.1497 54.9505 58.1889 54.8271C58.1889 53.7701 58.1241 53.0698 57.9972 52.7264C57.6316 52.7707 57.36 52.7352 57.1772 52.6208C56.9953 52.5054 56.8621 52.2232 56.7805 51.7714C56.6988 51.3215 56.658 50.6035 56.6571 49.6184V47.8948C56.895 47.8726 57.2313 47.8238 57.6689 47.7493C58.0878 47.9516 58.4348 48.2516 58.7081 48.651C58.9815 49.0521 59.2912 49.6867 59.6382 50.5564L59.9932 51.4528C60.6677 53.0681 61.0964 54.0709 61.2792 54.457C62.3726 54.102 64.4139 53.6636 67.4038 53.1346C67.6044 52.4069 67.7047 51.6773 67.7047 50.9487C67.1758 51.0064 66.779 50.9434 66.5155 50.7623C66.251 50.5804 65.9368 50.1668 65.5721 49.5198ZM140.087 41.7098V44.1141C139.74 44.2259 139.385 44.2987 139.019 44.3315C138.655 44.3643 138.181 44.3848 137.598 44.3981C134.489 40.2517 131.381 36.1736 128.273 32.1532V38.5131C127.588 38.6799 126.904 38.8503 126.219 39.0225C126.221 38.9231 126.222 38.821 126.222 38.7172V29.5262L125.84 29.0328C125.693 28.7887 125.497 28.6245 125.251 28.5429C125.005 28.4603 124.59 28.4142 124.008 28.4044C123.861 27.8879 123.788 27.1824 123.788 26.2886C124.499 26.2886 125.712 26.2185 127.425 26.1076C128.993 26.0046 130.023 25.923 130.515 25.8431C131.512 27.1646 132.508 28.4923 133.506 29.8262C132.807 30.1368 132.11 30.4501 131.411 30.767C132.304 30.7084 133.195 30.6551 134.088 30.6072C135.404 32.3716 136.719 34.1483 138.035 35.9366V31.6145C138.035 30.5389 137.975 29.7463 137.857 29.2387C137.738 28.731 137.524 28.3698 137.215 28.1586C136.904 27.9474 136.403 27.8125 135.711 27.7601C135.583 27.272 135.519 26.562 135.519 25.6328C136.285 25.6638 137.478 25.6576 139.101 25.6337C140.377 25.615 141.343 25.5866 142 25.5307C142 25.8955 141.991 26.2656 141.973 26.6392C141.954 27.0119 141.9 27.3545 141.808 27.6643C141.317 27.7379 140.952 27.8773 140.715 28.0787C140.478 28.282 140.314 28.6432 140.222 29.1632C140.131 29.6833 140.086 30.4909 140.086 31.5861V40.6821C139.198 40.6901 138.309 40.7043 137.421 40.7238C138.309 41.0469 139.197 41.3753 140.086 41.7098H140.087ZM122.359 40.3395C121.974 41.6016 121.712 43.1866 121.573 45.101C119.422 45.2527 117.043 45.4666 114.437 45.756C113.141 45.8997 111.674 46.0808 110.035 46.3009C108.393 46.5227 107.044 46.718 105.987 46.8778C105.987 46.0027 106.06 45.2811 106.206 44.7149C106.717 44.6111 107.094 44.4602 107.34 44.2641C107.586 44.0662 107.76 43.7582 107.861 43.3349C107.96 42.9115 108.011 42.2725 108.011 41.4143V36.6795C109.187 36.4505 110.364 36.2269 111.541 36.0085C110.364 35.7822 109.187 35.5612 108.011 35.3456V33.0984C108.011 32.2597 107.964 31.65 107.874 31.2702C107.782 30.8894 107.615 30.6383 107.368 30.5149C107.122 30.3924 106.725 30.3303 106.179 30.3303C106.051 29.8369 105.987 29.134 105.987 28.2225C107.682 28.0503 110.153 27.753 113.398 27.382C116.788 26.9951 119.249 26.7368 120.781 26.5434C120.799 27.3261 120.858 28.1772 120.958 29.0993C121.059 30.0206 121.191 30.7732 121.355 31.3616C120.498 31.7645 119.578 32.0139 118.593 32.1106C118.393 31.035 118.028 30.2602 117.499 29.7854C116.971 29.3088 116.077 29.1375 114.819 29.2742C114.373 29.323 113.927 29.3736 113.479 29.4242V35.6331L113.507 35.6305C114.364 35.5328 114.943 35.3287 115.244 35.0136C115.544 34.6977 115.703 34.1758 115.722 33.4428C116.287 33.1641 117.089 32.9706 118.128 32.8677C118.055 34.0427 118.019 35.113 118.019 36.0787C118.019 37.1907 118.055 38.2725 118.128 39.3225C117.09 39.4263 116.305 39.4174 115.776 39.2914C115.703 38.553 115.512 38.0755 115.202 37.8625C114.892 37.6495 114.327 37.5883 113.507 37.6824L113.48 37.685V40.612C113.48 41.4693 113.542 42.119 113.671 42.5592C113.798 43.002 114.013 43.2976 114.314 43.4449C114.614 43.594 115.048 43.6375 115.613 43.5762L116.077 43.5265C117.007 43.4289 117.741 43.0668 118.278 42.4403C118.816 41.8128 119.267 40.8161 119.632 39.4511C120.234 39.4494 120.79 39.5133 121.301 39.6411C121.729 39.7494 122.061 39.8825 122.297 40.0405L122.004 40.1185L122.359 40.3395ZM73.6652 45.7062L74.5677 43.2212C75.1144 41.7924 75.552 40.4576 75.8804 39.2142C76.2087 40.3431 76.6729 41.519 77.2746 42.7438L78.3139 44.8862C76.7643 45.1578 75.2147 45.432 73.6652 45.7062ZM86.3671 47.4759C86.1754 47.3535 85.9517 47.0899 85.697 46.6861C85.5106 46.3905 85.2737 45.9663 84.987 45.4169C83.9726 45.606 82.9573 45.7968 81.942 45.9894C82.8029 45.4924 83.6637 44.9954 84.5246 44.5001C82.5455 40.4957 80.5664 36.4967 78.5872 32.5011C78.2056 32.5686 77.8444 32.6414 77.5071 32.7186C77.1699 32.7958 76.8371 32.9005 76.5096 33.031L74.0326 39.3118L76.0632 38.5841C75.2201 39.2461 74.3769 39.91 73.5347 40.5738L70.7124 47.7342C70.2563 48.8533 69.8871 49.6175 69.6049 50.023C69.3217 50.4286 68.9632 50.7153 68.5248 50.8839C68.3419 51.4821 68.2514 52.2099 68.2514 53.0663C68.7981 52.9154 69.6732 52.7326 70.8757 52.5187C72.3889 52.2516 73.4557 52.0891 74.0761 52.0341C74.0761 51.2318 74.0024 50.5334 73.8569 49.9396C73.4557 49.937 73.1593 49.826 72.9685 49.6041C72.7768 49.3832 72.6818 49.1 72.6809 48.7521C72.6809 48.5152 72.7262 48.2702 72.8176 48.0173L72.8726 47.8975C74.6228 47.4067 76.6906 46.9461 79.0798 46.5299L79.2715 46.907C79.4712 47.3277 79.5715 47.6658 79.5715 47.9206C79.5715 48.1762 79.4809 48.4007 79.299 48.5977C79.1162 48.7939 78.8251 48.9722 78.4239 49.1338C78.2775 49.7435 78.2047 50.4668 78.2047 51.3064C78.897 51.1306 80.5016 50.8191 83.0176 50.3869C85.1503 50.0195 86.5809 49.8056 87.3105 49.7382C87.3105 48.8063 87.2377 48.1087 87.0913 47.641C86.8002 47.6534 86.5588 47.5993 86.3671 47.4759ZM130.433 42.3675C130.56 42.8361 130.625 43.5434 130.625 44.4913C129.859 44.478 128.756 44.509 127.315 44.6049C125.62 44.7167 124.445 44.8365 123.788 44.943C123.788 43.9774 123.861 43.2603 124.008 42.7926C124.609 42.6719 125.06 42.4926 125.361 42.2512C125.661 42.0107 125.88 41.6211 126.017 41.0833C126.09 40.7984 126.142 40.4416 126.177 40.0183C126.875 39.5417 127.575 39.0686 128.273 38.5983C128.274 39.665 128.333 40.4531 128.451 40.9634C128.569 41.4755 128.774 41.8279 129.066 42.0205C129.357 42.2139 129.814 42.3284 130.433 42.3675ZM104.169 31.027C104.287 31.95 104.446 32.8082 104.648 33.6007C103.936 33.9895 102.988 34.269 101.803 34.4394C101.548 33.2182 101.196 32.3698 100.751 31.8967C100.303 31.4255 99.6245 31.2551 98.7131 31.3927L98.1664 31.4752V42.7997C98.1664 43.6748 98.2347 44.3031 98.3714 44.6838C98.5081 45.0655 98.7583 45.3086 99.124 45.4187C99.4879 45.5279 100.062 45.5429 100.846 45.4649C101.029 45.9122 101.121 46.6106 101.12 47.5585C100.098 47.6516 98.3208 47.8868 95.7879 48.28C92.7793 48.7504 90.6741 49.1258 89.4706 49.3778C89.4706 49.0672 89.5026 48.698 89.5665 48.2685C89.6304 47.8371 89.7076 47.4786 89.799 47.1902C90.6013 47.0215 91.2022 46.8227 91.6042 46.5938C92.0045 46.3648 92.2876 46.032 92.4518 45.5944C92.6151 45.1587 92.6976 44.5117 92.6976 43.6535V39.8496C93.6153 39.1414 94.533 38.4358 95.4497 37.7321C94.533 38.0427 93.6153 38.3551 92.6976 38.6701V32.3298L92.6426 32.3387C91.6761 32.4931 90.9333 32.889 90.4149 33.5209C89.8949 34.1537 89.4795 35.1157 89.1698 36.407C87.8758 36.6209 86.9368 36.6431 86.3538 36.4683C86.5534 35.6855 86.7176 34.7891 86.8454 33.7729C86.9741 32.7576 87.0371 31.8755 87.0371 31.1282C88.5689 30.9276 91.4214 30.4714 95.5962 29.8182C98.9136 29.2999 101.712 28.8668 103.991 28.4941C103.991 29.26 104.05 30.104 104.169 31.027ZM10.2737 22.2035C10.7849 22.6907 11.2952 23.1753 11.8064 23.659C11.2952 24.1977 10.7849 24.7346 10.2737 25.2698V29.528C10.2737 32.1603 10.0456 34.3525 9.59032 36.1053C9.13415 37.8572 8.24221 39.4405 6.91451 40.8401C5.58592 42.237 3.64585 43.5168 1.0934 44.6253C0.494337 44.2117 0.129575 43.5212 0 42.5574C1.01619 41.8013 1.83002 41.0131 2.44062 40.1984C3.053 39.3837 3.51539 38.3915 3.82779 37.2271C3.99641 36.5987 4.118 35.8861 4.1961 35.0962C4.97178 34.766 5.74834 34.4323 6.52401 34.0951C5.77052 34.1306 5.01792 34.1616 4.26444 34.19C4.28574 33.7782 4.29728 33.3487 4.29728 32.8996V25.5502C3.76122 25.0257 3.22517 24.4986 2.68912 23.9705C3.22517 23.4265 3.76122 22.8815 4.29728 22.3339V16.393C5.24601 16.3735 6.19475 16.3469 7.1426 16.3149C6.19475 15.9812 5.24601 15.6404 4.29728 15.2952V14.7281C4.29728 13.6338 4.22539 12.8217 4.0825 12.291C3.93872 11.7603 3.6849 11.3946 3.32014 11.1905C2.95537 10.9881 2.40867 10.8532 1.68004 10.7805C1.49721 10.2098 1.4058 9.40306 1.40669 8.36025C2.34389 8.43125 4.29728 8.45699 7.26596 8.35492C10.2604 8.2502 12.2271 8.09134 13.1643 7.9591C13.1643 8.97529 13.0604 9.78824 12.8519 10.3997C12.1224 10.5204 11.5757 10.7068 11.2118 10.9588C10.8453 11.2127 10.5994 11.6085 10.4689 12.149C10.3385 12.6904 10.2737 13.4811 10.2737 14.5231V22.2035ZM68.1769 24.2146C68.7244 24.519 69.3528 24.6539 70.0646 24.6192C70.0646 25.5493 69.9545 26.2523 69.7362 26.7288C68.6969 26.9125 67.434 27.1557 65.9483 27.4539C64.4627 27.753 63.419 27.998 62.8181 28.1959C61.9972 26.6427 61.1851 25.2574 60.3837 24.0379C59.5814 22.8194 58.6797 21.6932 57.6768 20.661V23.7246C57.6768 24.582 57.7274 25.2068 57.8277 25.5999C57.9271 25.9931 58.1002 26.2505 58.3469 26.3721C58.5927 26.4945 58.9708 26.5283 59.482 26.4786C59.6267 26.9818 59.7003 27.6802 59.7003 28.5731C58.8803 28.6609 57.431 28.8837 55.3525 29.2351C53.2012 29.5981 51.4785 29.9079 50.1846 30.1723C50.1846 29.8617 50.2112 29.4934 50.2662 29.0647C50.3213 28.637 50.3852 28.2793 50.4579 27.9944C50.9682 27.8755 51.3419 27.7131 51.5788 27.5107C51.8158 27.3066 51.98 26.9977 52.0714 26.5815C52.1628 26.1662 52.2081 25.5192 52.2081 24.6441V17.0648L54.583 15.7096C53.7914 15.8552 52.9988 15.9999 52.2072 16.1436C52.201 15.3839 52.161 14.8301 52.0847 14.4893C52.0031 14.1192 51.8433 13.877 51.6063 13.7607C51.3694 13.6453 50.9771 13.5947 50.4304 13.6107C50.2671 12.9806 50.1846 12.283 50.1846 11.5162C51.096 11.4239 52.7273 11.1852 55.0791 10.7893C57.0662 10.4547 58.6061 10.161 59.7003 9.91781C59.7003 10.3926 59.687 10.7911 59.6595 11.1159C59.632 11.4399 59.5637 11.7656 59.4545 12.0949C58.9256 12.2404 58.5422 12.4117 58.3061 12.6069C58.0682 12.8022 57.904 13.1039 57.8135 13.5122C57.7221 13.9204 57.6768 14.5506 57.6768 15.4088V18.5816C58.9078 17.1492 60.1379 15.715 61.3689 14.279C62.2253 13.2735 62.6531 12.5413 62.6539 12.086C62.6539 11.7576 62.417 11.6165 61.9431 11.6626C61.7789 11.1816 61.6963 10.484 61.6963 9.57169C62.3886 9.50601 63.419 9.35247 64.7866 9.11285C66.9193 8.73655 68.3144 8.46231 68.9703 8.29103C68.9703 8.63804 68.9428 9.02588 68.8886 9.45454C68.8336 9.88409 68.7608 10.2258 68.6694 10.4778C67.9949 10.6349 67.3435 10.9367 66.7143 11.3848C66.085 11.833 65.4522 12.4419 64.8141 13.2104L61.888 16.7604C63.5104 18.4831 65.0413 20.3921 66.4817 22.4893L64.2905 24.2128L67.0444 23.2259C67.4305 23.6785 67.8077 24.0104 68.1769 24.2146ZM48.2702 28.4284C47.5425 29.1828 46.6301 29.8555 45.5367 30.443C44.4424 31.0323 43.2115 31.4281 41.8447 31.6305C39.9854 31.9056 38.3444 31.7343 36.9227 31.1264C35.5018 30.5176 34.3977 29.5369 33.6141 28.1861C32.8304 26.8371 32.4381 25.221 32.4381 23.343C32.4381 21.3559 32.8712 19.5969 33.7374 18.0624C33.7871 17.9745 33.8413 17.8902 33.8936 17.8041L35.3163 17.3586L34.5024 16.8909C35.2453 15.8942 36.1381 15.0609 37.1827 14.3908C38.6133 13.4749 40.1674 12.8927 41.8447 12.6469C42.829 12.5022 43.8407 12.4729 44.88 12.5599C45.9184 12.6478 46.9124 12.843 47.8602 13.1483C47.6596 14.3287 47.5593 15.7576 47.5593 17.4349C47.341 17.5974 46.9585 17.7544 46.4118 17.9027C45.8651 18.0518 45.345 18.1645 44.8525 18.2399C44.8347 15.6164 43.8682 14.4538 41.9539 14.7369C40.5872 14.9393 39.5932 15.6999 38.9737 17.0276C38.3542 18.3562 38.0436 19.9758 38.0436 21.8911C38.0436 24.0734 38.4403 25.7907 39.2213 27.0483C38.5468 27.5569 37.8705 28.0636 37.1951 28.5686C38.0427 28.2979 38.8903 28.0246 39.7378 27.7486C40.62 28.7 41.8616 29.0594 43.4582 28.8189C44.7886 28.6192 46.1385 28.0273 47.5052 27.0457C47.8877 27.3137 48.1433 27.7743 48.2711 28.4284H48.2702ZM18.1094 27.8302C18.4112 27.0315 18.7112 26.2327 19.012 25.4322C19.5596 24.0566 19.9971 22.7608 20.3246 21.5467C20.653 22.704 21.1181 23.9208 21.7189 25.1961C22.065 25.9398 22.4111 26.6827 22.7582 27.4237C21.2086 27.5728 19.659 27.7078 18.1094 27.8302ZM30.8113 30.5318C30.6196 30.3986 30.396 30.1253 30.1413 29.7091C29.8875 29.2919 29.5395 28.637 29.1029 27.7379C28.6893 26.8797 28.2757 26.0206 27.8631 25.1597C27.0634 25 26.2629 24.8367 25.4624 24.6707C26.1289 24.5571 26.7954 24.4417 27.4619 24.3246C25.9851 21.2476 24.5083 18.16 23.0315 15.0618C22.649 15.0982 22.2887 15.1416 21.9514 15.1904C21.6142 15.2401 21.2814 15.3174 20.9539 15.4185C19.0209 20.1489 17.0888 24.8615 15.1558 29.5511C14.7005 30.6214 14.3305 31.3429 14.0491 31.7166C13.7651 32.0893 13.4066 32.3352 12.969 32.4532C12.7862 33.0283 12.6948 33.7454 12.6957 34.6018C13.2424 34.5158 14.1175 34.4368 15.3209 34.3542C16.8341 34.2504 17.9 34.1945 18.5195 34.198C18.5195 33.3975 18.4467 32.6911 18.3011 32.0822C17.9 32.0414 17.6045 31.9003 17.4128 31.6589C17.2211 31.4184 17.1252 31.1246 17.1252 30.7785C17.1252 30.5424 17.1705 30.3001 17.2619 30.057L17.3169 29.9434C19.0662 29.6274 21.1358 29.3629 23.5241 29.1277L23.7149 29.5191C23.9155 29.9558 24.0158 30.3019 24.0166 30.5566C24.0166 30.8122 23.9243 31.0305 23.7424 31.2134C23.5613 31.3944 23.2685 31.5524 22.8673 31.6811C22.7218 32.2793 22.649 32.9972 22.649 33.8359C23.3412 33.7143 24.9459 33.5351 27.4619 33.2582C29.5946 33.0203 31.0252 32.873 31.7547 32.8375C31.7547 31.9074 31.682 31.2045 31.5355 30.7306C31.2444 30.7306 31.003 30.6631 30.8113 30.5318ZM82.5881 15.4274C83.0434 14.7014 83.2715 13.6737 83.2715 12.3416C83.2715 10.9926 83.0212 9.96929 82.5198 9.27083C82.0183 8.57325 81.2666 8.31233 80.2637 8.48627C79.8803 8.55373 79.5253 8.67886 79.1969 8.86435V19.6688C79.1969 20.8545 79.4064 21.6523 79.8262 22.0624C80.2451 22.4724 81.0296 22.6126 82.1781 22.4884C82.3422 22.9144 82.4239 23.6128 82.4239 24.5784C81.3855 24.7027 79.6256 24.9813 77.1459 25.418C74.7763 25.8351 72.9623 26.1848 71.7056 26.4617C71.7056 25.5316 71.7686 24.8101 71.8964 24.2944C72.4244 24.164 72.8132 23.9953 73.059 23.7877C73.3048 23.58 73.4779 23.2614 73.5782 22.8336C73.6785 22.4058 73.7291 21.7633 73.7291 20.9059V14.9863L74.9733 14.5381L73.7282 13.8796V12.5901C73.7282 11.7327 73.6873 11.1204 73.6057 10.7529C73.524 10.3837 73.3634 10.1423 73.1264 10.0296C72.8895 9.91781 72.4981 9.87255 71.9505 9.89651C71.7863 9.26816 71.7047 8.57236 71.7047 7.80645C73.4362 7.5544 74.9219 7.31833 76.1617 7.1L79.6895 6.45301C80.2371 6.33941 80.8557 6.22226 81.5488 6.10245C84.2468 5.63385 86.1434 5.81046 87.2368 6.61986C88.3302 7.43192 88.8778 8.74986 88.8769 10.5728C88.8769 12.6886 88.2663 14.476 87.0451 15.9395C85.8239 17.403 84.1279 18.3198 81.9597 18.6961C81.1938 18.8283 80.5743 18.8452 80.0995 18.7458C80.0623 18.4609 80.0454 18.2443 80.0454 18.0979C80.0454 17.5885 80.1448 17.1332 80.3454 16.7329C80.4909 16.7436 80.6915 16.7267 80.9471 16.6832C81.5861 16.5723 82.1319 16.1534 82.5881 15.4274ZM102.877 17.4021C102.258 18.7839 101.391 19.5561 100.28 19.7194C98.9128 19.9208 97.8771 19.3173 97.1759 17.9018C96.4739 16.4871 96.1233 14.6038 96.1233 12.2519C96.1233 11.1035 96.2103 10.082 96.3816 9.19006L95.6077 7.51801L96.7615 7.78426C96.8413 7.5615 96.9301 7.34761 97.0259 7.14704C97.6277 5.89655 98.4832 5.18744 99.5961 5.02236C100.453 4.89634 101.2 5.12265 101.838 5.70574C102.477 6.28971 102.964 7.13195 103.301 8.23334C103.639 9.33561 103.807 10.5888 103.807 11.9928C103.807 14.2169 103.497 16.0203 102.877 17.4021ZM104.928 3.3299C103.506 2.77699 101.849 2.63765 99.9511 2.9181C98.1105 3.19056 96.4792 3.82335 95.0575 4.81291C93.6348 5.80336 92.5228 7.0716 91.7205 8.61496C90.9182 10.1592 90.517 11.889 90.5179 13.8033C90.5179 15.541 90.8392 17.0338 91.4728 18.294C92.4669 18.0375 93.4591 17.7846 94.4522 17.5335C93.6295 18.0739 92.8059 18.6162 91.9832 19.1602C92.7145 20.2155 93.6925 20.9885 94.9208 21.4802C96.3426 22.0482 98.0191 22.1875 99.9511 21.9017C101.848 21.6222 103.51 20.9716 104.942 19.9457C106.374 18.9206 107.475 17.6107 108.251 16.0052C109.026 14.4015 109.413 12.6265 109.414 10.6748C109.414 8.86879 109.021 7.33164 108.237 6.06429C107.453 4.79782 106.351 3.88459 104.928 3.33079V3.3299Z" fill="url(#paint0_linear_9187_8467)"/>
<defs>
<linearGradient id="paint0_linear_9187_8467" x1="-5.71124" y1="36.3947" x2="143.574" y2="10.282" gradientUnits="userSpaceOnUse">
<stop stop-color="#F5BF75"/>
<stop offset="0.49126" stop-color="#FFF8A2"/>
<stop offset="1" stop-color="#BA8C53"/>
</linearGradient>
</defs>
</svg>
