<svg width="142" height="67" viewBox="0 0 142 67" fill="none" xmlns="http://www.w3.org/2000/svg">
<g clip-path="url(#clip0)">
<path d="M7.53264 2.55286C7.53264 2.55286 13.6683 2.50806 12.3784 8.91014C11.0886 15.3122 0.195642 45.4562 0.195642 45.4562C0.195642 45.4562 -0.515317 47.9899 0.773368 48.7468C2.06205 49.5037 2.81895 50.3479 8.90977 50.9693V50.2583C8.90977 50.2583 7.70952 50.0355 7.70952 47.279C7.70952 44.5224 10.2432 39.7203 10.2432 39.7203C10.2432 39.7203 10.9106 39.0093 11.3103 39.9867C11.71 40.9642 19.8464 59.5054 32.8733 65.0621C45.9003 70.6189 49.0129 60.1716 49.1461 57.3702C49.1461 57.3702 41.0993 60.6608 30.8289 52.1684C20.5585 43.6759 14.7789 34.6103 14.7789 34.6103C14.7789 34.6103 13.5339 33.4526 14.2448 31.6746C14.9558 29.8966 24.1156 12.7348 23.4034 7.39978C22.6925 2.06472 20.8249 2.10951 17.0014 1.35261C13.1778 0.595708 7.53149 1.75231 7.53149 1.75231V2.55286H7.53264Z" fill="#232323"/>
<path d="M15.4014 34.2963C15.4014 34.2963 17.0461 20.0242 41.677 2.1067C41.677 2.1067 46.9673 -1.4056 49.5469 0.639985C52.1266 2.68557 54.704 6.41954 54.3491 11.0436C54.3491 11.0436 43.8122 11.2665 41.7666 14.4227L41.2773 14.2895C41.2773 14.2895 43.3229 11.4881 46.6572 10.4211V9.79861C46.6572 9.79861 32.9652 13.9782 15.9791 34.2963H15.4014Z" fill="#232323"/>
<path d="M68.3087 39.3647C68.3087 39.3647 65.597 43.3663 63.1965 44.1221C60.796 44.8778 61.0625 42.2097 61.0625 42.2097C61.0625 42.2097 61.2853 39.5416 63.0184 36.1625C64.7528 32.7835 68.3087 25.9369 68.3087 25.9369C68.3087 25.9369 70.2659 22.4694 68.8428 20.0241C67.4197 17.5788 66.7088 17.356 65.953 17.8453C65.1973 18.3346 60.4399 26.2482 58.5724 30.0717C56.7048 33.8953 55.1933 38.7858 52.4368 41.4092C49.6802 44.0325 48.2571 45.0995 47.3682 44.2989C46.4792 43.4984 47.2005 39.0523 48.2399 37.3191C49.2794 35.586 55.2817 25.4488 55.2817 25.4488C55.2817 25.4488 56.6152 22.0249 56.0823 19.8909C55.5482 17.7568 53.9931 16.8679 53.9931 16.8679C53.9931 16.8679 53.1925 16.4946 52.57 17.1481C51.9475 17.8016 50.792 20.2021 50.792 20.2021H50.3475C50.3475 20.2021 49.8513 18.6654 49.1473 18.2013C49.1473 18.2013 44.1683 13.4888 34.3423 23.8925C24.5164 34.2961 26.5172 41.7652 26.5172 41.7652C26.5172 41.7652 29.4517 53.0579 40.8776 43.055H41.3221C41.3221 43.055 41.9894 47.0566 46.4355 47.3679C50.8816 47.6791 54.6604 44.7894 55.3725 43.6328H55.5953C55.5953 43.6328 56.8851 47.3679 60.8419 47.1003C64.7987 46.8338 67.1108 46.1217 70.1338 43.2319C70.1326 43.2331 68.6636 40.7878 68.3087 39.3647ZM43.1001 33.6299C39.6762 39.8988 35.5414 44.0336 33.8967 43.8556C32.2519 43.6776 32.6964 39.7208 33.5854 37.2755C34.4744 34.8302 37.8087 29.3619 41.2773 25.5383C43.8777 22.6715 45.6269 21.9296 46.3402 21.7378C46.6905 21.6436 47.0603 21.8055 47.2165 22.1329C47.9344 23.626 46.0691 28.1927 43.1001 33.6299Z" fill="#232323"/>
<path d="M73.8669 32.0762C73.8669 32.0762 73.7337 29.7607 71.5996 30.7841C69.4656 31.8063 68.6203 35.3634 68.9763 38.1199C69.3324 40.8765 71.5996 47.0121 78.9803 47.0121C86.3609 47.0121 89.0279 46.1231 92.763 41.4542C92.763 41.4542 96.3201 48.9233 104.811 46.7445C113.303 44.5657 118.15 36.7853 118.15 36.7853C118.15 36.7853 121.75 32.384 124.33 26.3368C124.33 26.3368 121.174 26.5597 120.284 25.5363C120.284 25.5363 114.268 39.4511 106.501 43.0541C98.7344 46.6572 98.8538 39.9415 98.8538 39.9415C98.8538 39.9415 98.7654 36.2512 99.3879 34.5169C99.3879 34.5169 102.722 36.6509 106.368 35.6723C110.013 34.6938 118.283 27.8472 114.459 20.9558L110.413 21.6232C110.413 21.6232 110.813 22.6902 109.702 24.5129C108.59 26.3357 105.479 31.093 103.167 31.8936C100.855 32.6941 100.365 31.7156 100.365 31.7156C100.365 31.7156 102.633 25.2687 108.324 21.7116C108.324 21.7116 102.233 21.9781 100.099 20.733C100.099 20.733 92.8963 26.2909 91.874 36.2501C91.874 36.2501 89.6516 41.0074 86.9387 41.7184C86.9387 41.7184 88.8062 36.8278 87.2051 26.6022C85.604 16.3765 92.3185 18.7322 92.3185 18.7322C92.3185 18.7322 94.0081 20.2885 94.8522 18.8655C95.6964 17.4424 94.541 14.9971 90.9403 14.1966C87.3395 13.396 82.3594 15.2188 81.2039 19.4868L80.7594 21.7093L74.4021 31.224L75.2911 37.0035L80.4045 29.3564L80.7158 29.4012C80.7158 29.4012 82.0492 42.2054 79.3823 43.4952C76.7142 44.785 75.2475 39.4936 75.2475 39.4936C75.2475 39.4936 73.9565 35.6367 73.8669 32.0762Z" fill="#232323"/>
<path d="M123.263 19.1802H122.818C122.818 19.1802 121.262 21.0925 123.841 21.4922C126.419 21.8919 132.466 18.7805 133.132 17.8467C133.799 16.9129 135.4 17.1357 135.711 17.5802C136.022 18.0247 138.023 21.3153 138.023 21.3153C138.023 21.3153 139.09 23.0049 137.667 24.8276C136.244 26.6504 128.508 35.2761 128.463 40.1667C128.419 45.0572 130.731 44.1682 130.731 44.1682C130.731 44.1682 133.754 43.7685 135.933 39.9886C138.111 36.2099 139 34.2527 139 34.2527C139 34.2527 140.112 32.4747 141.357 34.1643C142.602 35.8538 142.291 40.4779 138.156 43.6342C134.021 46.7904 130.776 48.0802 126.286 46.5687C121.795 45.0572 122.352 38.6551 122.352 38.6551C122.352 38.6551 123.218 32.3415 127.085 28.2963L129.442 25.4949L129.354 24.784C129.354 24.784 126.864 25.673 123.841 25.6282C120.818 25.5834 118.061 23.6722 118.639 20.2483C119.216 16.8245 124.686 11.401 127.042 12.646C129.398 13.891 126.953 20.1599 126.953 20.1599C126.953 20.1599 124.986 21.1545 123.251 20.3873L123.263 19.1802Z" fill="#232323"/>
<path d="M97.9643 12.3102C97.9643 12.3102 101.721 16.8895 104.411 12.8213L106.056 9.88672H108.278C108.278 9.88672 109.545 14.9553 112.769 14.311C115.993 13.6666 115.992 12.4618 115.992 12.4618L117.415 13.244L115.592 17.2008C115.592 17.2008 114.236 18.1345 111.791 18.424L111.813 19.0465C111.813 19.0465 113.613 19.1579 114.947 18.3126C114.947 18.3126 115.08 20.38 113.124 20.736C111.168 21.0921 101.475 21.3138 100.43 20.4029L96.6113 13.0005L97.9643 12.3102Z" fill="#DD9237"/>
<path d="M96.2334 12.4395C97.1735 12.4395 97.9356 11.6774 97.9356 10.7373C97.9356 9.79724 97.1735 9.03516 96.2334 9.03516C95.2933 9.03516 94.5312 9.79724 94.5312 10.7373C94.5312 11.6774 95.2933 12.4395 96.2334 12.4395Z" fill="#DD9237"/>
<path d="M117.88 12.75C118.82 12.75 119.582 11.988 119.582 11.0479C119.582 10.1078 118.82 9.3457 117.88 9.3457C116.94 9.3457 116.178 10.1078 116.178 11.0479C116.178 11.988 116.94 12.75 117.88 12.75Z" fill="#DD9237"/>
<path d="M107.124 9.34671C108.343 9.34671 109.331 8.35836 109.331 7.13917C109.331 5.91999 108.343 4.93164 107.124 4.93164C105.904 4.93164 104.916 5.91999 104.916 7.13917C104.916 8.35836 105.904 9.34671 107.124 9.34671Z" fill="#DD9237"/>
<path d="M73.5048 10.6896C72.6813 9.95569 71.5569 9.62605 70.4864 9.88793C69.54 10.1199 68.481 10.8148 68.0319 12.6651C67.1315 16.367 72.1001 19.1947 73.9011 17.1468C75.4287 15.4091 75.4677 12.4389 73.5048 10.6896Z" fill="#232323"/>
<path d="M53.9883 63.2466L55.8903 60.938C56.9378 62.0831 58.1989 62.5678 59.1499 62.5678C60.2365 62.5678 60.7016 62.0246 60.7016 61.4032C60.7016 60.6463 60.2169 60.3167 58.6641 59.7929C56.568 59.0751 54.473 58.085 54.473 55.3687C54.473 53.0796 56.4324 51.3521 58.9937 51.3131C60.7981 51.274 62.4474 51.9724 63.7671 53.0979L61.9432 55.4651C60.7602 54.5336 59.9057 54.165 59.1292 54.165C58.3333 54.165 57.8486 54.5727 57.8486 55.232C57.8291 55.8912 58.3333 56.2404 59.8276 56.8227C62.2533 57.7542 64.1163 58.3756 64.1163 61.0334C64.1163 64.2735 61.3414 65.4381 59.0523 65.4381C57.287 65.4392 55.463 64.7604 53.9883 63.2466Z" fill="black"/>
<path d="M71.7412 51.4863H75.0594V62.3724H80.7838V65.2633H71.7412V51.4863Z" fill="black"/>
<path d="M87.3818 58.375C87.3818 54.2229 90.2923 51.293 94.4834 51.293C98.5975 51.293 101.565 54.1448 101.565 58.375C101.565 62.5856 98.5964 65.4375 94.4834 65.4375C90.2923 65.4386 87.3818 62.5282 87.3818 58.375ZM98.1703 58.375C98.1703 56.0848 96.6174 54.3194 94.4834 54.3194C92.3103 54.3194 90.777 56.1238 90.777 58.375C90.777 60.6262 92.3103 62.4305 94.4834 62.4305C96.6174 62.4305 98.1703 60.6652 98.1703 58.375Z" fill="black"/>
<path d="M111.422 54.3773H107.833V51.4863H118.331V54.3773H114.722V65.2633H111.422V54.3773Z" fill="black"/>
<path d="M124.946 63.2466L126.848 60.938C127.896 62.0831 129.157 62.5678 130.108 62.5678C131.194 62.5678 131.66 62.0246 131.66 61.4032C131.66 60.6463 131.175 60.3167 129.622 59.7929C127.526 59.0751 125.431 58.085 125.431 55.3687C125.431 53.0796 127.39 51.3521 129.952 51.3131C131.756 51.274 133.405 51.9724 134.725 53.0979L132.901 55.4651C131.718 54.5336 130.864 54.165 130.087 54.165C129.291 54.165 128.807 54.5727 128.807 55.232C128.787 55.8912 129.291 56.2404 130.786 56.8227C133.211 57.7542 135.074 58.3756 135.074 61.0334C135.074 64.2735 132.299 65.4381 130.01 65.4381C128.244 65.4392 126.42 64.7604 124.946 63.2466Z" fill="black"/>
</g>
<defs>
<clipPath id="clip0">
<rect width="142" height="66.6671" fill="white"/>
</clipPath>
</defs>
</svg>
