<svg width="142" height="49" viewBox="0 0 142 49" fill="none" xmlns="http://www.w3.org/2000/svg">
<path d="M72.6019 30.977C72.5088 32.4879 72.523 34.0035 72.6444 35.5125L72.1981 35.5975C72.1981 35.5975 69.2991 33.8972 68.2959 34.4073C68.2959 34.4073 65.805 36.5581 70.2555 39.9332L70.5573 40.1457L70.8549 41.0214L71.5987 42.1478C71.5987 42.1478 75.6284 47.797 81.3753 48.4133C81.3753 48.4133 87.0245 48.7534 91.8618 39.9969C91.8618 39.9969 93.5876 39.1468 94.544 36.4816C94.544 36.4816 95.1179 34.7813 93.5238 34.5858C93.5238 34.5858 92.0956 34.0757 90.1998 35.521L89.7747 34.5858C89.7747 34.5858 89.6047 31.8569 89.6897 31.1555C85.8176 30.0386 81.7683 29.6693 77.758 30.0673L76.7336 30.0248L75.4371 29.9823L74.4977 30.3649L73.9451 30.5561L72.5381 30.9217L72.6019 30.977Z" fill="#EAEEEF"/>
<path d="M72.1333 39.5039C72.1333 39.5039 80.9535 43.5293 90.2455 39.6102C90.2455 39.6102 86.9215 47.2614 81.4211 47.2614C81.3828 47.2742 76.4988 47.5335 72.1333 39.5039Z" fill="white"/>
<path d="M72.0317 28.2484C72.0317 28.2484 82.769 26.2889 90.0334 28.4185L89.9697 31.0624L89.7146 31.1262C89.7146 31.1262 83.0028 29.1666 77.7829 30.038L77.2728 30.1442C76.7699 29.9347 76.22 29.8636 75.6804 29.9384C75.1407 30.0131 74.6309 30.231 74.2038 30.5693L72.478 30.9561C72.478 30.9561 72.138 31.445 71.9212 30.9986L71.8574 28.546C71.8574 28.546 71.8574 28.2909 72.0317 28.2697V28.2484Z" fill="#EE7430"/>
<path d="M103.326 21.8371C104.728 21.8371 105.864 20.7009 105.864 19.2994C105.864 17.8979 104.728 16.7617 103.326 16.7617C101.925 16.7617 100.789 17.8979 100.789 19.2994C100.789 20.7009 101.925 21.8371 103.326 21.8371Z" fill="#FFD803"/>
<path d="M91.3038 3.93823C91.6257 2.5742 90.781 1.20744 89.4169 0.885495C88.0529 0.563553 86.6861 1.40834 86.3642 2.77238C86.0422 4.13642 86.887 5.50317 88.2511 5.82512C89.6151 6.14706 90.9819 5.30227 91.3038 3.93823Z" fill="#FFD803"/>
<path d="M58.815 22.1124C60.2165 22.1124 61.3527 20.9763 61.3527 19.5748C61.3527 18.1733 60.2165 17.0371 58.815 17.0371C57.4135 17.0371 56.2773 18.1733 56.2773 19.5748C56.2773 20.9763 57.4135 22.1124 58.815 22.1124Z" fill="#FFD803"/>
<path d="M61.3294 19.3426C61.3294 19.3426 68.1688 19.1046 69.1932 20.3203C69.1932 20.3203 71.089 21.5955 72.1984 27.8653V28.1628L76.3514 27.6102C76.3514 27.6102 77.3971 20.9834 77.7371 19.6827C77.7371 19.6827 72.0497 10.5819 60.8618 17.8294L61.1806 18.6795L61.3294 19.3426Z" fill="#EE7430"/>
<path d="M83.8116 27.3735C83.8116 27.3735 83.446 22.9442 83.7691 21.8986C83.7691 21.8986 92.2917 11.3738 101.218 17.6181V17.9157L100.878 18.6808C100.878 18.6808 89.4013 17.7031 89.8263 28.2491C89.8263 28.2491 88.5511 27.6965 83.8201 27.3735H83.8116Z" fill="#EE7430"/>
<path d="M76.3716 27.6026C76.3716 27.6026 78.8327 6.74862 86.535 4.42773C86.802 4.87182 87.117 5.28521 87.4744 5.66044C87.4744 5.66044 82.4458 21.6516 83.8103 27.373L76.3716 27.6026Z" fill="#B33319"/>
<path opacity="0.2" d="M61.2006 18.6751C61.2006 18.6751 75.0282 13.1789 76.6264 25.7695C76.6264 25.7695 77.5233 20.3371 77.7571 19.6783C77.7571 19.6783 72.4522 10.6413 60.8818 17.825C61.0182 18.0961 61.125 18.3812 61.2006 18.6751Z" fill="#010202"/>
<path opacity="0.2" d="M79.6827 27.4631C79.6827 27.4631 78.5095 22.3878 80.1502 22.154C80.1502 22.154 81.8505 10.031 86.9301 5.04492L87.4614 5.66127C87.4614 5.66127 82.6879 19.6631 83.7973 27.3739C83.8101 27.3739 80.1077 27.1401 79.6827 27.4631Z" fill="#010202"/>
<path opacity="0.2" d="M85.8979 27.4611C85.8979 27.4611 87.815 14.5262 101.09 18.0841C100.971 18.2538 100.898 18.4515 100.877 18.6579C100.877 18.6579 89.0095 17.914 89.8256 28.2262C89.8256 28.2262 87.2752 27.5036 85.9065 27.4611H85.8979Z" fill="#010202"/>
<path opacity="0.2" d="M89.0102 31.084C89.0102 31.084 88.9252 34.1317 89.2865 35.4282C89.6478 36.7247 90.9485 38.5185 90.9485 38.5185C90.9485 38.5185 91.7349 39.6704 91.6073 40.0742C91.4798 40.478 92.1217 39.5216 91.3948 38.3059C91.3948 38.3059 90.0729 36.3251 89.7328 34.8544L89.6478 31.169L89.0102 31.084Z" fill="#010202"/>
<path opacity="0.2" d="M90.3734 36.1042C90.8015 35.7713 91.2647 35.4862 91.7549 35.254C92.5242 34.8927 93.3956 34.7014 93.7612 34.8715C93.7612 34.8715 92.1204 34.0808 90.2246 35.5303L90.3734 36.1042Z" fill="#010202"/>
<path opacity="0.21" d="M92.2262 36.8351C92.2262 36.8351 92.5025 36.3675 92.3112 36.1975C92.3112 36.1975 92.1837 36.1125 92.7788 36.0275C92.9124 36.0045 93.049 36.0045 93.1826 36.0275L92.9276 35.8574L92.0775 35.9849L91.7544 36.0912L92.0987 36.6225L92.1412 36.8138L92.2262 36.8351Z" fill="#010202"/>
<path opacity="0.2" d="M72.5371 40.2207C75.3239 41.1654 78.2448 41.6548 81.1873 41.6702C83.7675 41.6914 86.7132 41.5214 89.795 40.3482V39.8168C89.795 39.8168 81.4211 43.7147 72.5371 39.498V40.2207Z" fill="#010202"/>
<path opacity="0.2" d="M74.5821 42.6328C74.5821 42.6328 77.5575 46.5945 81.3832 46.6795C83.3215 46.722 85.4979 45.9144 87.6062 43.1004L87.8825 43.1854C87.8825 43.1854 82.025 52.4774 74.395 42.8028L74.5821 42.6328Z" fill="#010202"/>
<path opacity="0.31" d="M72.0317 28.2484C72.0317 28.2484 82.769 26.2889 90.0334 28.4185L89.9697 31.0624L89.7146 31.1262C89.7146 31.1262 83.0028 29.1666 77.7829 30.038L77.2728 30.1442C76.7699 29.9347 76.22 29.8636 75.6804 29.9384C75.1407 30.0131 74.6309 30.231 74.2038 30.5693L72.478 30.9561C72.478 30.9561 72.138 31.445 71.9212 30.9986L71.8574 28.546C71.8574 28.546 71.8574 28.2909 72.0317 28.2697V28.2484Z" fill="url(#paint0_linear_7896_17135)"/>
<path d="M72.2611 28.3799C71.4492 24.5542 70.7266 20.8816 68.5927 19.9847C66.4588 19.0878 61.5195 19.4321 61.5195 19.4321" stroke="#010202" stroke-width="0.889941" stroke-miterlimit="10"/>
<path d="M60.8818 17.8253C60.8818 17.8253 71.0835 10.4291 77.7571 19.6786" stroke="#010202" stroke-width="0.889941" stroke-miterlimit="10"/>
<path d="M76.3716 27.6052C76.3716 27.6052 78.5649 7.16783 86.4287 4.42188" stroke="#010202" stroke-width="0.889941" stroke-miterlimit="10"/>
<path d="M87.4742 5.66211C87.4742 5.66211 82.5307 20.5396 83.8101 27.3747" stroke="#010202" stroke-width="0.889941" stroke-miterlimit="10"/>
<path d="M101.195 17.6189C101.195 17.6189 93.3739 11.0261 83.7461 21.8994" stroke="#010202" stroke-width="0.889941" stroke-miterlimit="10"/>
<path d="M100.686 18.7042C100.686 18.7042 89.2091 17.8541 89.7957 28.2726" stroke="#010202" stroke-width="0.889941" stroke-miterlimit="10"/>
<path d="M89.7948 28.3772C90.0711 28.2709 90.1137 28.5897 90.1137 28.5897V30.7405C90.1137 30.7405 90.1137 31.3611 89.5186 31.0423" stroke="#010202" stroke-width="0.889941" stroke-miterlimit="10"/>
<path d="M72.5791 30.832C72.0478 31.5971 71.8735 30.832 71.8735 30.832V28.5281C71.8735 28.5281 72.0691 28.0605 72.3879 28.1881" stroke="#010202" stroke-width="0.889941" stroke-miterlimit="10"/>
<path d="M89.5839 31.0853C85.5175 29.9976 81.2861 29.6648 77.0996 30.1034" stroke="#010202" stroke-width="0.889941" stroke-miterlimit="10"/>
<path d="M74.5175 30.4629C73.2168 30.6967 72.4517 30.9135 72.4517 30.9135" stroke="#010202" stroke-width="0.889941" stroke-miterlimit="10"/>
<path d="M72.2197 28.1615C72.2197 28.1615 82.3407 26.2445 89.9452 28.3741" stroke="#010202" stroke-width="0.889941" stroke-miterlimit="10"/>
<path d="M104.733 17.8242C104.913 18.1185 105.009 18.4568 105.009 18.8019C105.005 19.2329 104.857 19.6502 104.589 19.9876C104.321 20.325 103.948 20.5631 103.529 20.6642C103.11 20.7653 102.669 20.7235 102.276 20.5455C101.884 20.3675 101.562 20.0635 101.362 19.6818C101.423 19.9955 101.556 20.2904 101.753 20.5427C101.949 20.795 102.202 20.9974 102.491 21.1336C102.78 21.2697 103.097 21.3358 103.416 21.3264C103.736 21.3171 104.048 21.2325 104.329 21.0796C104.609 20.9266 104.85 20.7097 105.031 20.4464C105.212 20.183 105.328 19.8807 105.371 19.564C105.413 19.2473 105.38 18.925 105.274 18.6235C105.168 18.3219 104.993 18.0496 104.762 17.8285L104.733 17.8242Z" fill="#010202"/>
<path d="M103.326 21.8371C104.728 21.8371 105.864 20.7009 105.864 19.2994C105.864 17.8979 104.728 16.7617 103.326 16.7617C101.925 16.7617 100.789 17.8979 100.789 19.2994C100.789 20.7009 101.925 21.8371 103.326 21.8371Z" stroke="#010202" stroke-width="0.889941" stroke-miterlimit="10"/>
<path d="M90.2461 1.89039C90.427 2.18596 90.5226 2.52579 90.5224 2.87231C90.5171 3.30622 90.3663 3.7258 90.0942 4.06387C89.8222 4.40194 89.4445 4.63893 89.0218 4.7369C88.5991 4.83487 88.1557 4.78815 87.7626 4.60422C87.3696 4.42029 87.0496 4.1098 86.854 3.72245C86.9462 4.21994 87.2206 4.66515 87.6237 4.97098C88.0267 5.27682 88.5294 5.42127 89.0333 5.37609C89.5372 5.33091 90.0062 5.09933 90.3484 4.72668C90.6906 4.35402 90.8815 3.86709 90.8837 3.36114C90.8768 2.79906 90.6475 2.26259 90.2461 1.86914V1.89039Z" fill="#010202"/>
<path d="M91.3038 3.93823C91.6257 2.5742 90.781 1.20744 89.4169 0.885495C88.0529 0.563553 86.6861 1.40834 86.3642 2.77238C86.0422 4.13642 86.887 5.50317 88.2511 5.82512C89.6151 6.14706 90.9819 5.30227 91.3038 3.93823Z" stroke="#010202" stroke-width="0.889941" stroke-miterlimit="10"/>
<path d="M60.1984 18.1062C60.38 18.4001 60.4771 18.7383 60.4789 19.0838C60.4773 19.5192 60.3293 19.9413 60.0585 20.2823C59.7878 20.6232 59.4102 20.8631 58.9865 20.9632C58.5628 21.0634 58.1178 21.018 57.723 20.8343C57.3283 20.6507 57.0069 20.3395 56.8105 19.951C56.9027 20.4485 57.1771 20.8937 57.5802 21.1995C57.9833 21.5053 58.4859 21.6498 58.9898 21.6046C59.4938 21.5594 59.9627 21.3278 60.3049 20.9552C60.6472 20.5825 60.838 20.0956 60.8402 19.5897C60.8458 19.3096 60.7915 19.0315 60.6808 18.7742C60.5701 18.5169 60.4056 18.2862 60.1984 18.0977V18.1062Z" fill="#010202"/>
<path d="M58.815 22.1124C60.2165 22.1124 61.3527 20.9763 61.3527 19.5748C61.3527 18.1733 60.2165 17.0371 58.815 17.0371C57.4135 17.0371 56.2773 18.1733 56.2773 19.5748C56.2773 20.9763 57.4135 22.1124 58.815 22.1124Z" stroke="#010202" stroke-width="0.889941" stroke-miterlimit="10"/>
<path d="M82.1278 22.1531C81.9451 22.2021 81.7589 22.2376 81.571 22.2594C81.3878 22.2849 81.2033 22.2991 81.0184 22.3019H80.0577H80.0152C79.906 22.2761 79.7993 22.2405 79.6964 22.1956C79.5979 22.159 79.505 22.1089 79.4201 22.0468C79.338 21.9884 79.2599 21.9245 79.1863 21.8556C79.1303 21.7971 79.0804 21.733 79.0376 21.6643C79.0013 21.6144 78.9792 21.5557 78.9738 21.4942C78.9525 21.4517 78.9738 21.4092 78.9738 21.3667V21.3242C78.9751 21.3406 78.9828 21.3558 78.9951 21.3667C79.0163 21.3667 79.0163 21.4305 79.0588 21.4517C79.1013 21.473 79.1226 21.5155 79.1651 21.558C79.2187 21.5982 79.2755 21.6337 79.3351 21.6643C79.4907 21.7402 79.6548 21.7973 79.8239 21.8343L80.1002 21.8981H80.4233C80.6375 21.8972 80.8511 21.9185 81.0609 21.9618C81.2734 21.9618 81.4647 22.0256 81.6135 22.0468C81.7889 22.0714 81.9613 22.1141 82.1278 22.1744V22.1531Z" fill="#010202"/>
<path d="M82.1267 22.1557C81.9646 22.2012 81.8 22.2367 81.6336 22.2619L81.1447 22.3257C80.9747 22.3257 80.8259 22.3257 80.6559 22.3682H80.2053L79.9928 22.4107L79.7803 22.4532C79.6528 22.5 79.504 22.5425 79.3552 22.585L79.1639 22.6487C79.1002 22.6487 79.0364 22.7125 78.9726 22.7338C78.9046 22.7608 78.8403 22.7965 78.7814 22.84C78.7209 22.8773 78.664 22.92 78.6113 22.9675L78.6538 22.8613C78.6751 22.8188 78.6963 22.7975 78.7176 22.755C78.7388 22.7125 78.8239 22.6275 78.8664 22.5637C78.9741 22.4458 79.1041 22.3505 79.2489 22.2832C79.384 22.1997 79.5262 22.1286 79.674 22.0707C79.7378 22.0707 79.8228 22.0069 79.8865 21.9856L80.1203 21.9219H80.6559C80.8196 21.9255 80.9829 21.9397 81.1447 21.9644L81.6336 22.0281L82.1054 22.1557H82.1267Z" fill="#010202"/>
<path d="M82.616 33.2996C82.683 33.1791 82.7613 33.0653 82.8498 32.9596C82.9492 32.8333 83.0557 32.7127 83.1686 32.5982C83.3156 32.4456 83.4733 32.3036 83.6404 32.1732C83.8331 32.0096 84.0477 31.8737 84.278 31.7694C84.3375 31.7323 84.4019 31.7037 84.4693 31.6843C84.5386 31.6523 84.6096 31.624 84.6818 31.5993L84.8944 31.5356C84.9581 31.5356 85.0219 31.5356 85.1069 31.4931C85.4083 31.4253 85.7161 31.3897 86.025 31.3868C86.3581 31.3844 86.6895 31.4346 87.007 31.5356C87.3308 31.6485 87.6224 31.8381 87.8571 32.0882C88.0751 32.3361 88.2413 32.6251 88.3459 32.9383C88.4232 33.2161 88.4731 33.5009 88.4947 33.7884C88.5139 34.0457 88.4997 34.3043 88.4522 34.5578C88.4138 34.7679 88.3569 34.9741 88.2822 35.1742C88.219 35.3195 88.148 35.4614 88.0696 35.5992C88.0031 35.728 87.9248 35.8504 87.8358 35.9648C87.8358 35.9648 87.8783 35.816 87.9421 35.5397C88.0267 35.199 88.0695 34.8493 88.0696 34.4983C88.0683 34.2688 88.047 34.0398 88.0059 33.8139C87.9621 33.5682 87.8981 33.3265 87.8146 33.0913C87.7259 32.8592 87.5882 32.649 87.4108 32.475C87.2362 32.3003 87.0239 32.168 86.7902 32.0882C86.5372 32.0011 86.2713 31.958 86.0038 31.9606C85.7324 31.9425 85.4599 31.9568 85.1919 32.0031C85.1281 32.0031 85.0644 32.0244 85.0006 32.0244C84.9369 32.0244 84.8731 32.0244 84.8093 32.0244C84.7502 32.0258 84.6921 32.0403 84.6393 32.0669C84.5795 32.0787 84.5221 32.1003 84.4693 32.1307C84.2542 32.2013 84.0475 32.2953 83.8529 32.4112C83.5374 32.5835 83.2374 32.7826 82.956 33.0063C82.8274 33.0623 82.7061 33.1336 82.5947 33.2188L82.616 33.2996Z" fill="#010202"/>
<path d="M79.2579 32.0407C79.1297 31.9435 79.009 31.8369 78.8966 31.7218C78.7904 31.6156 78.6416 31.4881 78.4716 31.2968C78.3114 31.1305 78.1411 30.9743 77.9615 30.8292C77.7505 30.6801 77.5221 30.5573 77.2814 30.4636C77.0082 30.3524 76.7229 30.2739 76.4312 30.2299C76.1361 30.1767 75.8338 30.1767 75.5386 30.2299C75.3928 30.2668 75.2505 30.3166 75.1135 30.3786C74.9814 30.4487 74.8536 30.5268 74.7309 30.6124C74.4896 30.8078 74.2877 31.0472 74.1359 31.318C73.9911 31.5854 73.8838 31.8715 73.8171 32.1682C73.7679 32.4719 73.7395 32.7787 73.732 33.0863C73.732 33.3839 73.732 33.6602 73.732 33.9365C73.7745 34.4508 73.8383 34.8971 73.8808 35.2117C73.9233 35.5262 73.9658 35.6793 73.9658 35.6793C73.9658 35.6793 73.8808 35.5092 73.7745 35.2542C73.6683 34.9991 73.5365 34.5316 73.409 34.0172C73.3426 33.7379 73.3 33.4535 73.2815 33.1671C73.2597 32.833 73.2597 32.498 73.2815 32.1639C73.2963 31.9833 73.332 31.805 73.3877 31.6326C73.4398 31.4479 73.5125 31.2696 73.6045 31.1012C73.7748 30.7457 74.0215 30.4321 74.3271 30.1831C74.6386 29.9329 75.0038 29.7583 75.3941 29.673C75.7658 29.5986 76.1487 29.5986 76.5205 29.673C76.8626 29.7379 77.1934 29.8525 77.5024 30.0131C77.5753 30.0442 77.6463 30.0797 77.7149 30.1193L77.8212 30.1618C77.8637 30.1618 77.885 30.2043 77.9275 30.2256C78.0571 30.313 78.1781 30.4127 78.2888 30.5231C78.4681 30.7072 78.6199 30.9162 78.7394 31.1438C78.8456 31.335 78.9306 31.5051 79.0157 31.6326L79.2579 32.0407Z" fill="#010202"/>
<path d="M84.5751 33.5529C84.3968 33.5497 84.2209 33.5937 84.065 33.6804H84.1501C84.3547 33.71 84.5398 33.8178 84.6667 33.9811C84.7935 34.1444 84.8521 34.3505 84.8302 34.5561C84.8547 34.6591 84.8556 34.7664 84.8328 34.8698C84.81 34.9733 84.764 35.0702 84.6984 35.1534C84.6327 35.2365 84.5491 35.3037 84.4538 35.3499C84.3584 35.3961 84.2539 35.4201 84.1479 35.4201C84.042 35.4201 83.9374 35.3961 83.8421 35.3499C83.7467 35.3037 83.6631 35.2365 83.5975 35.1534C83.5318 35.0702 83.4859 34.9733 83.463 34.8698C83.4402 34.7664 83.4411 34.6591 83.4657 34.5561C83.4657 34.471 83.4869 34.386 83.4869 34.301C83.3471 34.5854 83.2744 34.898 83.2744 35.2149C83.2744 36.1331 83.8738 36.9152 84.5964 36.9152C85.319 36.9152 85.9184 36.1713 85.9184 35.2149C85.9184 34.2585 85.302 33.5529 84.5751 33.5529Z" fill="#010202"/>
<path d="M77.332 33.6388C77.1524 33.636 76.9751 33.68 76.8176 33.7663H76.9026C77.1076 33.7959 77.2932 33.9036 77.4207 34.0667C77.5482 34.2299 77.6078 34.4359 77.587 34.642C77.6116 34.745 77.6125 34.8523 77.5897 34.9557C77.5668 35.0592 77.5209 35.1561 77.4552 35.2393C77.3896 35.3224 77.3059 35.3896 77.2106 35.4358C77.1153 35.482 77.0107 35.506 76.9048 35.506C76.7988 35.506 76.6943 35.482 76.5989 35.4358C76.5036 35.3896 76.42 35.3224 76.3543 35.2393C76.2887 35.1561 76.2427 35.0592 76.2199 34.9557C76.1971 34.8523 76.198 34.745 76.2225 34.642C76.2225 34.5569 76.2438 34.4719 76.2438 34.3869C76.1039 34.6713 76.0312 34.9839 76.0313 35.3008C76.0313 36.219 76.6263 37.0011 77.3532 37.0011C78.0801 37.0011 78.6752 36.2572 78.6752 35.3008C78.6752 34.3444 78.0546 33.6388 77.332 33.6388Z" fill="#010202"/>
<path d="M72.6005 35.6801C72.5082 34.113 72.5082 32.5418 72.6005 30.9746" stroke="#010202" stroke-width="0.889941" stroke-miterlimit="10"/>
<path d="M70.5142 40.0758C70.5142 40.0758 67.679 38.8006 67.6578 35.6848C67.6365 32.5691 72.5376 35.7953 72.5376 35.7953" stroke="#010202" stroke-width="0.889941" stroke-miterlimit="10"/>
<path d="M68.3154 36.5585L68.7405 36.601C68.7405 36.601 68.8893 35.8784 69.4631 36.0059C70.037 36.1334 69.7607 36.5585 69.7607 36.5585C69.7607 36.5585 69.7607 37.2386 70.7213 38.1355L70.9551 38.2418L71.0401 37.9655C71.0401 37.9655 70.19 37.1153 70.1007 36.5797C70.0115 36.0441 70.9509 36.1122 70.9509 36.1122C70.9509 36.1122 70.139 35.8996 69.8414 35.7721C69.5412 35.6352 69.2016 35.6111 68.885 35.7041C68.7278 35.7871 68.5943 35.9086 68.4969 36.0573C68.3995 36.206 68.3414 36.377 68.3282 36.5542L68.3154 36.5585Z" fill="#010202"/>
<path d="M90.2246 35.5155C90.2246 35.5155 91.8866 34.4529 92.9068 34.4954C93.927 34.5379 94.25 34.9205 94.25 34.9205C94.25 34.9205 94.9514 35.7961 94.2075 37.1776C93.4637 38.5591 93.2469 38.8779 92.5072 39.5877C91.7676 40.2976 91.8909 39.7365 91.8909 39.7365" stroke="#010202" stroke-width="0.889941" stroke-miterlimit="10"/>
<path d="M91.2664 37.38C91.2664 37.38 91.7978 37.4268 91.9295 36.7637C92.0613 36.1006 91.1602 36.1048 91.1602 36.1048C91.547 36.0427 91.9215 35.9193 92.2696 35.7393C92.4305 35.6691 92.6041 35.6328 92.7797 35.6328C92.9552 35.6328 93.1289 35.6691 93.2898 35.7393C93.4395 35.8133 93.564 35.9298 93.6479 36.0742C93.7318 36.2185 93.7714 36.3845 93.7616 36.5512H93.396C93.396 36.5512 93.4173 36.1261 93.0772 35.9773C92.7777 35.9197 92.4679 35.9492 92.1846 36.0623C92.1605 36.0872 92.1438 36.1182 92.1363 36.152C92.1288 36.1857 92.1308 36.2209 92.1421 36.2536C92.1963 36.3884 92.2111 36.5358 92.1846 36.6787C92.18 36.8997 92.1107 37.1146 91.9853 37.2966C91.8599 37.4787 91.6838 37.62 91.479 37.7031L91.2664 37.38Z" fill="#010202"/>
<path d="M89.7106 31.127C89.7106 31.127 89.5193 34.281 89.9869 35.3224C90.0507 35.4499 90.1782 35.9642 90.2249 36.0493" stroke="#010202" stroke-width="0.889941" stroke-miterlimit="10"/>
<path d="M72.6651 35.5117C71.8234 36.59 71.1102 37.7626 70.5397 39.0058C70.4842 39.5571 70.5464 40.1139 70.7223 40.6393C70.8981 41.1647 71.1837 41.6468 71.5599 42.0535C71.5599 42.0535 76.1422 48.064 81.2345 48.4041C86.3268 48.7442 91.3767 41.3947 91.891 39.9877C91.8713 39.5314 91.7913 39.0798 91.653 38.6445C91.4404 38.0281 90.1822 36.4936 90.1397 35.5117" stroke="#010202" stroke-width="0.889941" stroke-miterlimit="10"/>
<path d="M80.0137 40.3559C81.1232 40.3984 82.3176 40.0371 82.9892 39.1232C83.1593 38.9064 82.7767 38.6981 82.6279 38.9064C82.0541 39.697 80.9659 39.9733 80.0265 39.9308C79.9701 39.9308 79.9161 39.9532 79.8762 39.993C79.8364 40.0329 79.814 40.087 79.814 40.1433C79.814 40.1997 79.8364 40.2538 79.8762 40.2936C79.9161 40.3335 79.9701 40.3559 80.0265 40.3559H80.0137Z" fill="#010202"/>
<path d="M72.0912 39.5039H72.0317C72.0317 39.5039 81.2133 56.9318 90.2077 39.6102C81.5108 43.2318 73.5407 40.1203 72.0742 39.5039H72.0912Z" stroke="#010202" stroke-width="0.889941" stroke-miterlimit="10"/>
<path d="M71.0449 39.7142C71.0884 39.6096 71.1536 39.5154 71.2362 39.4379C71.3168 39.3619 71.402 39.2909 71.4912 39.2254C71.5979 39.1562 71.712 39.0992 71.8313 39.0554C72.0567 38.9632 72.2945 38.9044 72.5369 38.8811C72.6428 38.8678 72.7499 38.8678 72.8557 38.8811C72.8306 38.9009 72.8017 38.9154 72.7707 38.9236C72.7282 38.9449 72.6432 38.9661 72.5582 39.0086C72.4611 39.0508 72.3617 39.0877 72.2606 39.1191L72.0906 39.1829L71.9163 39.2467L71.5763 39.3954C71.47 39.4379 71.385 39.5017 71.3 39.5442C71.1512 39.6505 71.0449 39.7142 71.0449 39.7142Z" fill="#010202"/>
<path d="M89.5825 39.0292C89.6791 39.0007 89.7793 38.9863 89.8801 38.9867C89.9882 38.9846 90.0962 38.9917 90.2031 39.0079C90.3194 39.0352 90.4331 39.0721 90.5432 39.1185C90.6582 39.1663 90.7656 39.2307 90.862 39.3097C90.899 39.3512 90.942 39.3871 90.9895 39.416C91.032 39.4585 91.0533 39.501 91.0958 39.5223C91.1428 39.5789 91.1788 39.6437 91.202 39.7136L91.2445 39.7986C91.2255 39.7814 91.204 39.767 91.1808 39.7561C91.1281 39.7085 91.0712 39.6658 91.0107 39.6285L90.777 39.4585C90.6846 39.3964 90.5846 39.3463 90.4794 39.3097C90.3731 39.2672 90.2669 39.2247 90.1776 39.1822C90.0877 39.1472 89.9954 39.1187 89.9013 39.0972L89.5825 39.0292Z" fill="#010202"/>
<path d="M83.8535 43.9522C83.8535 43.9522 87.2541 43.9522 88.1977 42.8895L89.0479 41.3125C89.0479 41.3125 87.3688 43.2296 83.8535 43.9522Z" fill="#010202"/>
<path d="M78.3099 43.6524C78.3099 43.6524 75.4364 43.4824 74.157 42.5898L73.1538 40.9277C73.1538 40.9277 75.8572 43.3294 78.3099 43.6524Z" fill="#010202"/>
<path d="M0.449707 45.508L0.619736 42.4815C0.619736 42.3284 0.789765 25.5382 0.789765 24.7518V24.3267L8.46228 23.9824L7.9947 38.8344L14.1115 38.6643L13.9159 45.8055L0.449707 45.508Z" fill="url(#paint1_linear_7896_17135)"/>
<path d="M7.99557 24.4357L7.52799 39.2877L13.6618 39.1177L13.4917 45.3789L0.90115 45.0814L1.04567 42.48C1.04567 42.48 1.2157 25.5154 1.2157 24.729L7.99557 24.4357ZM8.86696 23.5601L7.95306 23.6026L1.15194 23.9001L0.340054 23.9426V24.7545C0.340054 25.5197 0.170029 41.8424 0.170029 42.4842L0.0425064 45.0601L0 45.9103H0.875644L13.4662 46.2078H14.3164L14.3376 45.3577L14.5076 39.0964V38.1995L13.6107 38.2208L8.39088 38.3695L8.83721 24.4145V23.5176L8.86696 23.5601Z" fill="white"/>
<path d="M15.2593 44.9315L15.7736 24.3921L30.9019 24.1328L32.5001 41.0761L31.7307 45.229L21.5291 45.6329L15.2593 44.9315ZM21.8734 39.0783L25.2739 38.9465L24.8914 30.8702L22.0136 30.7172L21.8734 39.0783Z" fill="url(#paint2_linear_7896_17135)"/>
<path d="M30.4938 24.5841L32.0496 41.0768L31.3482 44.8472L21.5248 45.2722L15.6631 44.6049L16.1562 24.8518L30.4938 24.5841ZM21.4483 39.504L25.7543 39.334L25.3292 30.4458L21.6439 30.2545L21.4483 39.504ZM31.293 23.6914H30.5023L16.186 23.9252H15.3741V24.7371L14.8853 44.4901V45.2765L15.6504 45.3615L21.4483 46.0841H21.5759L31.3992 45.6803L32.0793 45.6548L32.2069 44.9959L32.9125 41.2256L32.9337 41.098L32.9125 40.9705L31.3567 24.4778L31.293 23.6914ZM22.2985 38.6539L22.426 31.1769L24.4706 31.2832L24.8319 38.5476L22.2985 38.6539Z" fill="white"/>
<path d="M34.6258 45.231L34.5195 24.8276L47.5607 23.8457L47.8157 30.4088L41.7627 30.5151L41.4864 39.2332L48.5596 38.8082V45.9068L34.6258 45.231Z" fill="url(#paint3_linear_7896_17135)"/>
<path d="M47.1149 24.3088L47.3529 29.9962L41.3211 30.1025L41.0236 39.6921L48.118 39.2883V45.4858L35.0514 44.8269L34.9451 25.2439L47.1149 24.3088ZM47.965 23.3906L47.0894 23.4544L34.9026 24.3938L34.1162 24.4576V25.2439L34.2225 44.8269V45.6346L35.0301 45.6813L48.1138 46.3402L49.0107 46.3827V38.3914L48.1138 38.4339L41.9545 38.7739L42.2138 30.9356L47.4337 30.8506H48.2838L48.2413 29.975L48.0075 24.2875L47.965 23.3906Z" fill="white"/>
<path d="M50.0552 44.9315L50.5695 24.3921L65.6978 24.1328L67.296 41.0761L66.5266 45.2291L56.325 45.6329L50.0552 44.9315ZM56.682 39.0783L60.0826 38.9465L59.7 30.8702L56.8223 30.7172L56.682 39.0783Z" fill="url(#paint4_linear_7896_17135)"/>
<path d="M65.3114 24.5846L66.8672 41.0774L66.1658 44.8477L56.3425 45.2728L50.485 44.6054L50.9738 24.8524L65.3114 24.5846ZM56.2574 39.5046L60.5634 39.3346L60.1383 30.4463L56.453 30.2551L56.2574 39.5046ZM66.0808 23.709H65.2902L50.9738 23.9428H50.1619L50.1407 24.7547L49.6519 44.5077V45.294L50.417 45.3791L56.2787 46.0422H56.4062L66.2296 45.6384L66.9097 45.6129L67.0415 44.954L67.7428 41.1836V41.0561V40.9286L66.1871 24.4359L66.0808 23.709ZM57.1118 38.6545L57.2394 31.1775L59.2839 31.2837L59.6453 38.5482L57.1118 38.6545Z" fill="white"/>
<path d="M107.971 41.4836L105.161 31.0651L102.304 41.4836C102.092 42.2699 101.879 42.848 101.769 43.1838C101.627 43.5446 101.393 43.8614 101.089 44.102C100.723 44.4003 100.259 44.5518 99.788 44.5271C99.42 44.5375 99.055 44.4572 98.7253 44.2933C98.4416 44.1285 98.2057 43.8926 98.041 43.6089C97.8503 43.2763 97.7072 42.9186 97.6159 42.5462C97.5096 42.1212 97.4033 41.7556 97.3183 41.4156L94.4194 29.7176C94.276 29.2103 94.1905 28.6884 94.1643 28.1619C94.1576 27.951 94.1959 27.7412 94.2765 27.5462C94.3571 27.3513 94.4783 27.1757 94.6319 27.0312C94.9465 26.7274 95.3678 26.5595 95.8051 26.5636C96.0584 26.5351 96.3146 26.5776 96.5451 26.6865C96.7756 26.7953 96.9712 26.9662 97.1101 27.18C97.3763 27.7498 97.5691 28.3511 97.6839 28.9695L99.958 39.0819L102.508 29.5773C102.649 29.0147 102.819 28.4599 103.019 27.9153C103.176 27.5272 103.434 27.1882 103.767 26.9334C104.167 26.6413 104.658 26.4984 105.152 26.5296C105.648 26.5055 106.137 26.6559 106.534 26.9547C106.844 27.1991 107.081 27.5241 107.218 27.8941C107.346 28.2341 107.516 28.7867 107.728 29.5944L110.317 39.0819L112.595 28.9355C112.673 28.5176 112.779 28.1057 112.914 27.7028C113.021 27.3964 113.197 27.1187 113.429 26.8909C113.714 26.6372 114.089 26.5072 114.47 26.5296C114.901 26.5175 115.32 26.6694 115.643 26.9547C115.802 27.1009 115.928 27.2793 116.012 27.4779C116.096 27.6765 116.137 27.8909 116.132 28.1066C116.101 28.6326 116.016 29.154 115.877 29.6624L112.978 41.3603C112.787 42.1467 112.617 42.7248 112.489 43.1073C112.349 43.4756 112.123 43.805 111.83 44.068C111.457 44.3681 110.986 44.5195 110.508 44.4931C110.038 44.5108 109.577 44.36 109.208 44.068C108.908 43.823 108.675 43.5075 108.527 43.1498C108.3 42.6093 108.114 42.0523 107.971 41.4836Z" fill="#EAEEEE"/>
<path d="M118.585 42.3792V28.6749C118.547 28.1003 118.72 27.5317 119.073 27.0766C119.239 26.9059 119.437 26.7702 119.656 26.6775C119.875 26.5849 120.111 26.5371 120.349 26.5371C120.586 26.5371 120.822 26.5849 121.041 26.6775C121.26 26.7702 121.458 26.9059 121.624 27.0766C121.98 27.5302 122.156 28.0995 122.117 28.6749V42.3792C122.159 42.9601 121.983 43.5359 121.624 43.9944C121.459 44.1667 121.261 44.3039 121.042 44.3976C120.823 44.4913 120.587 44.5396 120.349 44.5396C120.11 44.5396 119.874 44.4913 119.655 44.3976C119.436 44.3039 119.238 44.1667 119.073 43.9944C118.718 43.5343 118.544 42.9593 118.585 42.3792Z" fill="#EAEEEE"/>
<path d="M130.645 28.6536L137.42 38.9021V28.5686C137.383 28.0302 137.533 27.4956 137.845 27.0553C137.998 26.8942 138.181 26.7657 138.385 26.678C138.588 26.5902 138.808 26.5449 139.029 26.5449C139.251 26.5449 139.47 26.5902 139.674 26.678C139.877 26.7657 140.061 26.8942 140.213 27.0553C140.542 27.4881 140.701 28.0265 140.659 28.5686V42.2474C140.659 43.7819 140.022 44.53 138.764 44.53C138.475 44.5336 138.188 44.4905 137.913 44.4025C137.652 44.3119 137.413 44.1671 137.212 43.9774C136.98 43.7682 136.773 43.5329 136.596 43.276C136.4 43.021 136.209 42.7447 136.018 42.4684L129.416 32.339V42.5407C129.458 43.0861 129.291 43.6269 128.949 44.0539C128.798 44.2202 128.614 44.3519 128.407 44.4399C128.201 44.528 127.978 44.5703 127.754 44.564C127.53 44.5721 127.307 44.5305 127.1 44.4424C126.894 44.3542 126.709 44.2216 126.56 44.0539C126.237 43.626 126.079 43.0966 126.114 42.5619V29.1254C126.095 28.6698 126.16 28.2145 126.305 27.7822C126.468 27.4215 126.732 27.1152 127.064 26.8998C127.396 26.6843 127.783 26.5686 128.179 26.5665C128.458 26.5539 128.735 26.6047 128.991 26.7153C129.214 26.8185 129.416 26.9627 129.586 27.1404C129.782 27.3496 129.954 27.579 130.101 27.8247C130.266 28.0585 130.453 28.3561 130.645 28.6536Z" fill="#EAEEEE"/>
<path fill-rule="evenodd" clip-rule="evenodd" d="M104.284 27.6443C104.077 27.804 103.915 28.0151 103.815 28.2567C103.628 28.7681 103.468 29.2889 103.337 29.8171L103.333 29.8317L99.888 42.6695L96.85 29.1402L96.8471 29.1246C96.7501 28.6022 96.5903 28.0935 96.3711 27.6097C96.321 27.5482 96.2575 27.4987 96.1851 27.4652C96.0973 27.4246 96.0001 27.4092 95.9041 27.4205L95.8503 27.4269L95.7961 27.4264C95.582 27.4244 95.3756 27.5066 95.2215 27.6554L95.2135 27.6631C95.1477 27.7251 95.0957 27.8003 95.0612 27.8838C95.0274 27.9654 95.011 28.0531 95.0129 28.1414C95.0364 28.6009 95.1115 29.0564 95.2366 29.4992L95.2403 29.5123L98.1422 41.2093C98.1422 41.2096 98.1421 41.2091 98.1422 41.2093C98.1803 41.3617 98.2233 41.5212 98.2713 41.6989L98.279 41.7274C98.3295 41.9145 98.3845 42.119 98.4397 42.34L98.4406 42.3437C98.5128 42.638 98.6258 42.9208 98.7763 43.1838C98.8623 43.3312 98.9833 43.455 99.1284 43.5443C99.3264 43.6378 99.5438 43.6834 99.763 43.6772L99.8029 43.6761L99.8427 43.6787C100.101 43.6957 100.357 43.6164 100.561 43.4562C100.741 43.3132 100.882 43.1262 100.969 42.9134C100.993 42.8395 101.021 42.7586 101.051 42.6706C101.168 42.3264 101.324 41.8714 101.483 41.283L101.484 41.28L105.167 27.8464L108.792 41.2909C108.931 41.8241 109.104 42.3478 109.31 42.8588C109.401 43.0806 109.545 43.2768 109.73 43.4306C109.94 43.5872 110.198 43.6658 110.46 43.6525L110.511 43.6499L110.561 43.6533C110.818 43.6709 111.073 43.5965 111.28 43.4439C111.457 43.2788 111.595 43.0759 111.683 42.8503C111.802 42.4936 111.963 41.9444 112.147 41.1891L112.148 41.1855L115.051 29.4681C115.173 29.0223 115.249 28.5652 115.277 28.1039C115.278 28.0132 115.259 27.9233 115.224 27.8397C115.188 27.755 115.135 27.6787 115.068 27.6155C114.908 27.4768 114.701 27.4031 114.489 27.4091L114.452 27.4101L114.415 27.408C114.265 27.3992 114.118 27.4477 114.003 27.5432C113.874 27.6754 113.775 27.8341 113.713 28.0085C113.592 28.3718 113.496 28.7432 113.426 29.1198L113.423 29.1357L110.39 42.6442L106.909 29.8234C106.699 29.0249 106.538 28.5049 106.426 28.2053L106.425 28.2031C106.343 27.9823 106.202 27.788 106.018 27.6408C105.782 27.4653 105.491 27.3771 105.197 27.3914L105.155 27.3935L105.113 27.3914C104.816 27.3764 104.523 27.4659 104.284 27.6443ZM105.156 25.6914C104.474 25.6667 103.804 25.8772 103.258 26.2883L103.253 26.2927C102.8 26.6396 102.448 27.1012 102.234 27.6297L102.229 27.6432L102.224 27.6569C102.015 28.2275 101.836 28.8087 101.689 29.3981L100.035 35.5623L98.5158 28.7983C98.3876 28.1147 98.1737 27.4501 97.8793 26.82L97.8524 26.7624L97.8172 26.7094C97.5897 26.3671 97.2719 26.0945 96.8989 25.922C96.5425 25.7572 96.1492 25.6898 95.759 25.7263C95.1195 25.7337 94.5062 25.9845 94.0444 26.4285C93.8049 26.6549 93.6159 26.9294 93.4899 27.234C93.3633 27.5404 93.3032 27.8701 93.3137 28.2015L93.3143 28.2168C93.3434 28.8025 93.4381 29.3832 93.5965 29.9479L96.4926 41.6217C96.5348 41.7902 96.5816 41.9637 96.6284 42.1371L96.6374 42.1705C96.6878 42.357 96.7389 42.5472 96.7898 42.7506C96.9 43.1995 97.0726 43.6306 97.3025 44.0316L97.3048 44.0358C97.5438 44.4473 97.8859 44.7894 98.2975 45.0284L98.3213 45.0422L98.3459 45.0545C98.7887 45.2746 99.2776 45.3854 99.7717 45.3777C100.436 45.4115 101.091 45.2033 101.614 44.7908L101.616 44.7897C102.037 44.4559 102.363 44.0163 102.559 43.5157L102.568 43.4935L102.575 43.4708C102.596 43.4078 102.622 43.3317 102.652 43.2435C102.769 42.901 102.948 42.3764 103.124 41.7281C103.124 41.7276 103.124 41.7271 103.124 41.7266L105.153 34.3262L107.148 41.7225C107.305 42.326 107.501 42.9189 107.734 43.4973L107.736 43.5029C107.937 43.9909 108.256 44.4214 108.664 44.7556L108.675 44.7645L108.686 44.7731C109.205 45.1696 109.844 45.3741 110.496 45.3527C111.162 45.386 111.819 45.1792 112.347 44.7687L112.371 44.7505L112.393 44.7306C112.787 44.3769 113.091 43.9339 113.279 43.4386L113.285 43.4224L113.29 43.4059C113.427 42.9971 113.603 42.3964 113.798 41.5927C113.799 41.5921 113.799 41.5915 113.799 41.5909L116.695 29.906C116.847 29.3439 116.941 28.7675 116.975 28.186L116.976 28.1712L116.977 28.1564C116.985 27.8198 116.921 27.4854 116.789 27.1755C116.658 26.8656 116.462 26.5873 116.214 26.3591L116.201 26.3471C115.725 25.9272 115.111 25.6999 114.477 25.7087C113.884 25.6836 113.303 25.89 112.859 26.2851L112.842 26.2996L112.827 26.315C112.503 26.634 112.257 27.0228 112.107 27.4517L112.103 27.4624C111.957 27.8979 111.842 28.3429 111.757 28.7944L110.234 35.579L108.553 29.3875C108.339 28.5732 108.16 27.9894 108.018 27.6094C107.826 27.0935 107.496 26.6405 107.064 26.2997L107.049 26.2882C106.504 25.8784 105.836 25.668 105.156 25.6914Z" fill="#EAEEEE"/>
<path fill-rule="evenodd" clip-rule="evenodd" d="M120.35 27.6C120.255 27.6 120.16 27.6192 120.072 27.6564C120.001 27.6866 119.935 27.7281 119.877 27.7792C119.709 28.0197 119.627 28.3109 119.647 28.605L119.649 28.64V42.3793H118.586L119.646 42.4542C119.625 42.7539 119.708 43.0511 119.88 43.296C119.937 43.348 120.003 43.3901 120.074 43.4206C120.162 43.4579 120.255 43.4771 120.35 43.4771C120.445 43.4771 120.539 43.4579 120.626 43.4206C120.698 43.3897 120.765 43.3469 120.823 43.294C120.996 43.0511 121.08 42.7546 121.059 42.4556L121.056 42.4175V28.6393L121.058 28.6036C121.078 28.3102 120.995 28.0197 120.826 27.7812C120.767 27.7291 120.701 27.6869 120.628 27.6564C120.54 27.6192 120.446 27.6 120.35 27.6ZM117.523 42.3453V28.7069C117.478 27.886 117.731 27.0759 118.235 26.4256L118.271 26.3791L118.312 26.3368C118.577 26.064 118.894 25.8471 119.244 25.699C119.594 25.5509 119.97 25.4746 120.35 25.4746C120.73 25.4746 121.107 25.5509 121.457 25.699C121.807 25.8471 122.123 26.064 122.388 26.3368L122.427 26.3767L122.461 26.4204C122.971 27.0703 123.227 27.8834 123.181 28.7075V42.3447C123.231 43.1746 122.975 43.9946 122.462 44.6499L122.43 44.691L122.394 44.7289C122.13 45.005 121.813 45.2247 121.461 45.3749C121.11 45.525 120.732 45.6024 120.35 45.6024C119.968 45.6024 119.59 45.525 119.239 45.3749C118.888 45.2247 118.571 45.005 118.307 44.7289L118.268 44.6887L118.234 44.6447C117.727 43.9889 117.475 43.172 117.523 42.3453Z" fill="#EAEEEE"/>
<path fill-rule="evenodd" clip-rule="evenodd" d="M139.03 27.6078C138.953 27.6078 138.877 27.6235 138.806 27.654C138.756 27.6757 138.709 27.7045 138.667 27.7395C138.528 27.9654 138.463 28.2296 138.481 28.4955L138.484 28.5321V42.4365L129.755 29.2342L129.752 29.2284C129.639 29.0539 129.542 28.9074 129.445 28.7604C129.369 28.6463 129.293 28.532 129.21 28.404L129.199 28.387L129.189 28.3695C129.082 28.1907 128.957 28.0236 128.815 27.871C128.741 27.7946 128.654 27.7319 128.558 27.6859C128.454 27.6428 128.341 27.6231 128.228 27.6283L128.207 27.6292L128.186 27.6294C127.993 27.6304 127.805 27.6867 127.643 27.7915C127.495 27.8875 127.375 28.0206 127.295 28.177C127.204 28.4695 127.163 28.7756 127.176 29.0819L127.177 29.1038V42.5963L127.175 42.6304C127.158 42.8949 127.23 43.157 127.38 43.3744C127.42 43.4126 127.467 43.4434 127.518 43.4653C127.581 43.492 127.649 43.5046 127.717 43.5022L127.751 43.5009L127.785 43.5019C127.856 43.5039 127.926 43.4906 127.991 43.4628C128.047 43.4388 128.098 43.4044 128.142 43.3616C128.301 43.1494 128.377 42.8864 128.357 42.6213L128.354 42.5811V28.7622L136.9 41.8759C137.091 42.1516 137.265 42.4021 137.44 42.6296L137.456 42.6503L137.47 42.6717C137.601 42.861 137.754 43.0344 137.925 43.1885L137.933 43.1964L137.942 43.2045C138.031 43.2885 138.136 43.3532 138.251 43.3947C138.413 43.4451 138.582 43.4697 138.751 43.4676L138.758 43.4675H138.764C139.176 43.4675 139.309 43.3539 139.369 43.2827C139.459 43.1747 139.597 42.8941 139.597 42.2475V28.528L139.601 28.4874C139.621 28.2258 139.551 27.9657 139.404 27.7496C139.36 27.71 139.309 27.6777 139.254 27.654C139.183 27.6235 139.107 27.6078 139.03 27.6078ZM137.965 25.7023C138.301 25.5573 138.664 25.4824 139.03 25.4824C139.396 25.4824 139.759 25.5573 140.095 25.7023C140.432 25.8474 140.735 26.0596 140.986 26.326L141.025 26.3672L141.06 26.4122C141.537 27.0402 141.772 27.819 141.723 28.6055V42.2475C141.723 43.1354 141.542 43.9962 140.999 44.6458C140.427 45.3306 139.615 45.5915 138.771 45.5928C138.37 45.5971 137.971 45.5369 137.59 45.4145L137.578 45.4108L137.566 45.4067C137.167 45.2684 136.801 45.0477 136.493 44.7592C136.21 44.5028 135.957 44.2155 135.738 43.9028C135.532 43.6329 135.334 43.3463 135.152 43.0835L135.136 43.0612L130.48 35.9161V42.5045C130.529 43.3034 130.28 44.0927 129.779 44.7183L129.759 44.7433L129.737 44.767C129.484 45.0471 129.173 45.269 128.825 45.4174C128.488 45.5613 128.125 45.6327 127.759 45.6272C127.39 45.6356 127.023 45.5649 126.683 45.4198C126.333 45.2703 126.02 45.0453 125.767 44.7609L125.738 44.7283L125.712 44.6935C125.244 44.0726 125.01 43.3068 125.052 42.5312V29.1461C125.031 28.5686 125.114 27.992 125.298 27.444L125.315 27.3929L125.338 27.3438C125.585 26.7979 125.984 26.3344 126.486 26.0083C126.983 25.6861 127.561 25.5113 128.153 25.5042C128.586 25.4878 129.016 25.5683 129.413 25.74L129.426 25.7453L129.438 25.7508C129.782 25.9099 130.093 26.1321 130.355 26.4059L130.359 26.4107L130.364 26.4155C130.606 26.6745 130.82 26.9581 131.003 27.2616C131.058 27.3467 131.125 27.4479 131.197 27.5561C131.307 27.7225 131.428 27.9056 131.536 28.0733L136.358 35.368V28.602C136.314 27.8325 136.533 27.0704 136.979 26.4409L137.022 26.3802L137.073 26.326C137.325 26.0596 137.628 25.8474 137.965 25.7023Z" fill="#EAEEEE"/>
<defs>
<linearGradient id="paint0_linear_7896_17135" x1="76.1251" y1="29.2941" x2="89.9187" y2="29.2941" gradientUnits="userSpaceOnUse">
<stop offset="0.24" stop-opacity="0"/>
<stop offset="0.78"/>
</linearGradient>
<linearGradient id="paint1_linear_7896_17135" x1="7.26783" y1="45.8268" x2="7.26783" y2="24.0079" gradientUnits="userSpaceOnUse">
<stop stop-color="#EE7430"/>
<stop offset="0.24" stop-color="#E2662B"/>
<stop offset="0.66" stop-color="#C34420"/>
<stop offset="1" stop-color="#AA2A18"/>
</linearGradient>
<linearGradient id="paint2_linear_7896_17135" x1="2441.39" y1="-108983" x2="2441.39" y2="-107895" gradientUnits="userSpaceOnUse">
<stop stop-color="#EE7430"/>
<stop offset="0.24" stop-color="#E2662B"/>
<stop offset="0.66" stop-color="#C34420"/>
<stop offset="1" stop-color="#AA2A18"/>
</linearGradient>
<linearGradient id="paint3_linear_7896_17135" x1="2593.04" y1="-111843" x2="2593.04" y2="-110698" gradientUnits="userSpaceOnUse">
<stop stop-color="#EE7430"/>
<stop offset="0.24" stop-color="#E2662B"/>
<stop offset="0.66" stop-color="#C34420"/>
<stop offset="1" stop-color="#AA2A18"/>
</linearGradient>
<linearGradient id="paint4_linear_7896_17135" x1="3887.52" y1="-108983" x2="3887.52" y2="-107895" gradientUnits="userSpaceOnUse">
<stop stop-color="#EE7430"/>
<stop offset="0.24" stop-color="#E2662B"/>
<stop offset="0.66" stop-color="#C34420"/>
<stop offset="1" stop-color="#AA2A18"/>
</linearGradient>
</defs>
</svg>
