<svg width="34" height="34" viewBox="0 0 34 34" fill="none" xmlns="http://www.w3.org/2000/svg">
<g clip-path="url(#clip0_48_471)">
<path d="M33.6892 32.1752L23.3653 21.7882C25.2895 19.4836 26.4492 16.5187 26.4492 13.2813C26.4492 5.94628 20.5029 0 13.168 0C5.833 0 -0.113281 5.94628 -0.113281 13.2813C-0.113281 20.6162 5.833 26.5625 13.168 26.5625C16.5005 26.5625 19.5446 25.3321 21.8767 23.3038L32.1862 33.6781C32.6011 34.093 33.2742 34.093 33.6891 33.6781C34.1035 33.2632 34.1035 32.5906 33.6891 32.1752H33.6892ZM13.168 24.455C6.99697 24.455 1.99419 19.4523 1.99419 13.2813C1.99419 7.11025 6.99697 2.10747 13.168 2.10747C19.339 2.10747 24.3417 7.11025 24.3417 13.2813C24.3417 19.4523 19.339 24.455 13.168 24.455Z" fill="white"/>
</g>
<defs>
<clipPath id="clip0_48_471">
<rect width="34" height="34" fill="white"/>
</clipPath>
</defs>
</svg>
